/* XPM */
static char *kaaris[] = {
/* columns rows colors chars-per-pixel */
"64 64 217 2 ",
"   c #010101",
".  c #0A0604",
"X  c #0C0806",
"o  c #080708",
"O  c #0B0B0B",
"+  c #060809",
"@  c #120B06",
"#  c #140D0A",
"$  c #190F0B",
"%  c #15110D",
"&  c #1C120D",
"*  c #141313",
"=  c #1C1512",
"-  c #1C1A16",
";  c #1B1B1B",
":  c #141619",
">  c #0B0B10",
",  c #21160F",
"<  c #221612",
"1  c #241A14",
"2  c #2B1D16",
"3  c #241D1B",
"4  c #2C1E18",
"5  c #301F18",
"6  c #23201E",
"7  c #2D211C",
"8  c #32231C",
"9  c #38261E",
"0  c #3A281F",
"q  c #252322",
"w  c #2C2522",
"e  c #2D2926",
"r  c #2C2B2B",
"t  c #342621",
"y  c #3A2720",
"u  c #342924",
"i  c #3C2B24",
"p  c #342D2A",
"a  c #3B2D29",
"s  c #37302E",
"d  c #3C312C",
"f  c #363636",
"g  c #3D3532",
"h  c #3A3A3A",
"j  c #3E3936",
"k  c #412E26",
"l  c #412F28",
"z  c #423026",
"x  c #44322B",
"c  c #49362E",
"v  c #4D392E",
"b  c #413633",
"n  c #4B3731",
"m  c #443833",
"M  c #4D3A32",
"N  c #4B3D3A",
"B  c #463C39",
"V  c #513D34",
"C  c #533F39",
"Z  c #49413C",
"A  c #554137",
"S  c #55423A",
"D  c #5A453C",
"F  c #5C493E",
"G  c #584036",
"H  c #61493E",
"J  c #454544",
"K  c #4B4441",
"L  c #4D4A49",
"P  c #544642",
"I  c #554944",
"U  c #5D4A42",
"Y  c #534D4A",
"T  c #5D4E49",
"R  c #5C4741",
"E  c #5C514D",
"W  c #5E5047",
"Q  c #595454",
"!  c #5D5B5A",
"~  c #634D43",
"^  c #634F48",
"/  c #655146",
"(  c #695246",
")  c #65534B",
"_  c #6A554B",
"`  c #6D594D",
"'  c #715A4E",
"]  c #625551",
"[  c #6A5750",
"{  c #6C5A53",
"}  c #6C5E5B",
"|  c #665A57",
" . c #725D53",
".. c #725F59",
"X. c #785E54",
"o. c #6E625A",
"O. c #766156",
"+. c #7A6156",
"@. c #75625B",
"#. c #7B655B",
"$. c #7D695E",
"%. c #6E6A66",
"&. c #6B6766",
"*. c #746962",
"=. c #7C6B64",
"-. c #766664",
";. c #6F706D",
":. c #7C716D",
">. c #7A716A",
",. c #7A7775",
"<. c #826A5E",
"1. c #82665B",
"2. c #836D62",
"3. c #856F67",
"4. c #867166",
"5. c #8A7266",
"6. c #85726B",
"7. c #8A756B",
"8. c #8D796D",
"9. c #917A6E",
"0. c #90776C",
"q. c #857A74",
"w. c #8D7B73",
"e. c #857D7B",
"r. c #827673",
"t. c #927E73",
"y. c #927F78",
"u. c #8A827C",
"i. c #86847F",
"p. c #968175",
"a. c #998376",
"s. c #93817A",
"d. c #9A857B",
"f. c #9D8A7E",
"g. c #A08D7F",
"h. c #878382",
"j. c #8B8583",
"k. c #8B8B8B",
"l. c #8D8985",
"z. c #938984",
"x. c #9D8A82",
"c. c #968986",
"v. c #97918E",
"b. c #9C9895",
"n. c #9D9C9B",
"m. c #989594",
"M. c #A18D84",
"N. c #A28F89",
"B. c #A59186",
"V. c #A6938B",
"C. c #AA968C",
"Z. c #AC998E",
"A. c #A99387",
"S. c #B09B8E",
"D. c #AA9790",
"F. c #AD9B92",
"G. c #A29D9B",
"H. c #A09697",
"J. c #B19E94",
"K. c #B29F98",
"L. c #A3A19E",
"P. c #A8A09D",
"I. c #B3A196",
"U. c #B5A29A",
"Y. c #B9A69C",
"T. c #BBA99E",
"R. c #AAA9A6",
"E. c #AFACAB",
"W. c #A6A4A3",
"Q. c #BCAAA2",
"!. c #B4A9A5",
"~. c #B9B2AE",
"^. c #B5B5B2",
"/. c #BBB9B6",
"(. c #BDBBBA",
"). c #B9B5B4",
"_. c #C0ADA3",
"`. c #C2AFA8",
"'. c #C4B2A7",
"]. c #C6B4AB",
"[. c #C9B6AD",
"{. c #CBBAAD",
"}. c #CDBBB3",
"|. c #C2BFBE",
" X c #C9BDB9",
".X c #D1BEB5",
"XX c #D1BFB8",
"oX c #CFC0B6",
"OX c #D4C4BC",
"+X c #DAC7BF",
"@X c #C3C3C3",
"#X c #C9C5C2",
"$X c #C9C9C9",
"%X c #C8C7C8",
"&X c #D9CAC1",
"*X c #D1CECC",
"=X c #D7CAC2",
"-X c #D0D0CD",
";X c #D5D4D3",
":X c #D9D6D5",
">X c #DBD8D7",
",X c #DBDBDA",
"<X c #E3DDDA",
"1X c #E0D3C9",
"2X c #E3E0DE",
"3X c #E3E3E2",
"4X c #E8E7E6",
"5X c #EDECEC",
"6X c #E8E8E7",
"7X c #F0EFEE",
"8X c #EFF1F1",
"9X c #F3F3F3",
"0X c white",
"qX c #FEFEFE",
"wX c #FDFDFD",
"eX c #FFFFFF",
"rX c #F8F8F7",
/* pixels */
"                                                                                                                                ",
"  O r h h f f f f f f f f f f f f f f f f f f f f f f f f f f f f f f f f f f f f f f f f f f f f f f f f f f f f f f h h r O   ",
"  r m.;X$X@X@X@X@X@X@X@X@X@X@X@X@X@X@X@X@X@X@X@X@X@X@X@X@X@X@X@X@X@X@X@X@X@X@X@X@X@X@X@X@X@X@X@X@X@X@X@X@X@X@X@X@X@X@X$X;Xn.r   ",
"  h ;X0X0X0X0X0X0X0X0X0X0X0X0X0X0X0X0X0X0X0X0X0X0X0X0X0X0X0X0X0X0X0X0X0X0X0X0XrX2X*X#X#X*X6X0X0X0X0X0X0X0X0X0X0X0X0X0X0X0X,Xh   ",
"  h $X0X0X0X0X0X0X0X0X0X0X0X0X0X0X0X0X0X0X0X0X0X0X0X0X0X0X0X0X0X0X0X0X0X0X0X~.{ ^ ^ F D V A :.7X0X0X0X0X0X0X0X0X0X0X0X0X0X$Xh   ",
"  f @X0X0X0X0X0X0X0X0X0X0X0X0X0X0X0X0X0X0X0X0X0X0X0X0X0X0X0X0X0X0X0X0X0X;X>./ ^ H ^ ( _ ( ^ D D P.rX0X0X0X0X0X0X0X0X0X0X0X$Xf   ",
"  f @X0X0X0X0X0X0X0X0X0X0X0X0X0X0X0X0X0X0X0X0X0X0X0X0X0X0X0X0X0X0X0X0X9X>./ ^ ^ _ ' +.<.<.1.X.^ M o.9X0X0X0X0X0X0X0X0X0X0X$Xf   ",
"  f @X0X0X0X0X0X0X0X0X0X0X0X0X0X0X0X0X0X0X0X0X0X0X0X0X0X0X0X0X0X0X0X0X2X6./ _ / ' +.<.5.5.<.+.X.( x q.0X0X0X0X0X0X0X0X0X0X$Xf   ",
"  f @X0X0X0X0X0X0X0X0X0X0X0X0X0X0X0X0X0X0X0X0X0X0X0X0X0X0X0X0X0X0X0X0X0X>X*...^ ' 7.d.g.t.<.+._ / D c /.0X0X0X0X0X0X0X0X0X$Xf   ",
"  f @X0X0X0X0X0X0X0X0X0X0X0X0X0X0X0X0X0X0X0X0X0X0X0X0X0X0X0X0X0X0X0X5X5X9XE.@.D ' M.=X<X].t.0.+._ { ^ e.0X0X0X0X0X0X0X0X0X$Xf   ",
"  f @X0X0X0X0X0X0X0X0X0X0X0X0X0X0X0X0X0X0X0X0X0X0X0X0X0X0X0X0X0X0X0X;Xn.@X/./ A O.U.OXOX'.d.7. ./ @.z.%X5X0X0X0X0X0X0X0X0X$Xf   ",
"  f @X0X0X0X0X0X0X0X0X0X0X0X0X0X0X0X0X0X0X0X0X0X0X0X0X0X0X0X0X0X0X0X*X%./.!.n c +.V.J.U.U.7.X.^ V T H.m.3X0X0X0X0X0X0X0X0X$Xf   ",
"  f @X0X0X0X0X0X0X0X0X0X0X0X0X0X0X0X0X0X0X0X0X0X0X0X0X0X0X0X0X0X0X0X$Xm.(.G.D A O.U.Q.Q._.6. .' v M c.Q 3X0X0X0X0X0X0X0X0X$Xf   ",
"  f @X0X0X0X0X0X0X0X0X0X0X0X0X0X0X0X0X0X0X0X0X0X0X0X0X0X0X0X0X0X<Xq.%.,.L.h.e = B :.Q.}.x.M.J.8.D I -.! 5X0X0X0X0X0X0X0X0X$Xf   ",
"  f @X0X0X0X0X0X0X0X0X0X0X0X0X0X0X0X0X0X0X0X0X0X0X0X0X0X0X0X0X0X>XJ B J ;.Q Q J q X 6 4.5.t.W 6 O * Q h.0X0X0X0X0X0X0X0X0X$Xf   ",
"  f @X0X0X0X0X0X0X0X0X0X0X0X0X0X0X0X0X0X0X0X0X0X0X0X0X0X0X0X0X0X5Xb e ;.q   X = r f p d m d e r e e j Y :X0X0X0X0X0X0X0X0X$Xf   ",
"  f @X0X0X0X0X0X0X0X0X0X0X0X0X0X0X0X0X0X0X0X0X0X0X0X0X0X0X0X0X0X0Xl.g ^.h                             ; 3X0X0X0X0X0X0X0X0X$Xf   ",
"  f @X0X0X0X0X0X0X0X0X0X0X0X0X0X0X0X0X0X0X0X0X0X0X0X0X0X0X0X0X0X0Xv.K R.h             e B             r 0X0X0X0X0X0X0X0X0X$Xf   ",
"  f @X0X0X0X0X0X0X0X0X0X0X0X0X0X0X0X0X0X0X0X0X0X0X0X0X0X0X0X0X0X0X#XZ u.J   O       $ 2.t.          O r 0X0X0X0X0X0X0X0X0X$Xf   ",
"  f @X0X0X0X0X0X0X0X0X0X0X0X0X0X0X0X0X0X0X0X0X0X0X0X0X0X0X0X0X0X0X$X: Y p   = ; = 3 / Z.S.J         ; L 0X0X0X0X0X0X0X0X0X$Xf   ",
"  f @X0X0X0X0X0X0X0X0X0X0X0X0X0X0X0X0X0X0X0X0X0X0X0X0X0X0X0X0X0X0X7Xr * 6 < x { t._ _ 6.p.@.e O O r f ;.0X0X0X0X0X0X0X0X0X$Xf   ",
"  f @X0X0X0X0X0X0X0X0X0X0X0X0X0X0X0X0X0X0X0X0X0X0X0X0X0X0X0X0X0X0X0XJ O X < x ` a.=.p 1 = $ { D 1 * * k.0X0X0X0X0X0X0X0X0X$Xf   ",
"  f @X0X0X0X0X0X0X0X0X0X0X0X0X0X0X0X0X0X0X0X0X0X0X0X0X0X0X0X0X0X0X0X! O   $ 6 M 7.M.C.{ =.6.t.U d * * 5X0X0X0X0X0X0X0X0X0X$Xf   ",
"  f @X0X0X0X0X0X0X0X0X0X0X0X0X0X0X0X0X0X0X0X0X0X0X0X0X0X0X0X0X0X3X/.&.O     = t g D o.=.=.I / I d O J 0X0X0X0X0X0X0X0X0X0X$Xf   ",
"  f @X0X0X0X0X0X0X0X0X0X0X0X0X0X0X0X0X0X0X0X0X0X0X9X,X#X~.!.z.*.*.%.J * O O X   O ; 1 m 4 g $ 6 $ O k.0X0X0X0X0X0X0X0X0X0X$Xf   ",
"  f @X0X0X0X0X0X0X0X0X0X0X0X0X0X0X0X0X0X0X0X5X~.x.$.O. . . .@.@.U G.p O * * O O 6 B / D B = O * % r 3X0X0X0X0X0X0X0X0X0X0X$Xf   ",
"  f @X0X0X0X0X0X0X0X0X0X0X0X0X0X0X0X0X0X0X3Xs.2.+. .+.$.7.9.8.+.t E 3 O ; * O O o + X . . O * * O n.0X0X0X0X0X0X0X0X0X0X0X$Xf   ",
"  f @X0X0X0X0X0X0X0X0X0X0X0X0X0X0X0X0X9X Xx.8.6.2.7.M.F.U.M.$.c < = =   O O O   o O O O O O O O * 5X0X0X0X0X0X0X0X0X0X0X0X$Xf   ",
"  f @X0X0X0X0X0X0X0X0X0X0X0X0X0X0X0X#Xq.y.x.t.w.C.T.}..XT.2.V c i = $     * > O O * * * O   O O * Y 3X0X0X0X0X0X0X0X0X0X0X$Xf   ",
"  f @X0X0X0X0X0X0X0X0X0X0X0X0X0X:Xs.@.+.t.x.x._.}.OX}.J.7._ _ O.M 1 & .     * O O   O O O O O O 6 g T |.0X0X0X0X0X0X0X0X0X$Xf   ",
"  f @X0X0X0X0X0X0X0X0X0X0X0X0X5Xc.{ [ _ $.w.B.Y.T.Q.J.M.8.d.d.f.` 9 = .     O O       O   O O   . a Z P @X0X0X0X0X0X0X0X0X$Xf   ",
"  f @X0X0X0X0X0X0X0X0X0X0X0X9X,Xq._ / ` +.+.+. .<.d.S.Y.J.Z.J.Z.8.M 4 $                   ;     X 1 M / } ,X0X0X0X0X0X0X0X$Xf   ",
"  f @X0X0X0X0X0X0X0X0X0X0X5X8X3Xz._ ^ _ $.d.B.4. .+.8.C.g.a.d.A.B.2.M ,                 * ;     $ 1 z D } b.0X0X0X0X0X0X0X$Xf   ",
"  f @X0X0X0X0X0X0X0X0X0X9X$X9X(.2. .` ` 4.x.U.J.7.+.5.J.T.F.d.5.2.$.O.D &               * *   . 1 i c v U G.,X0X0X0X0X0X0X$Xf   ",
"  f @X0X0X0X0X0X0X0X0X0X;X,X*X@.U +.2.$.7.f.I.Q.B.t.2.Z.}.&X&X[.Y.B.7.2.m .             * ;   X 6 M F D A *.L.2X0X0X0X0X0X$Xf   ",
"  f @X0X0X0X0X0X0X0X0X9XE.-Xu.D F +.7.8.d.F.U.Y.B.f.p.J._.}.&X&X}.{.T.f. .<                 X = t ^ $.d.p.$.D | :X0X0X0X0X$Xf   ",
"  f @X0X0X0X0X0X0X0X0X^.L.b.P V ^ 2.s.V.K.Q.U.V.d.M.B.I.I.U.[.OXOX.X{.T.8.x X               $ 4 E x.w.{.[.t.U D :.9X0X0X0X$Xf   ",
"  f @X0X0X0X0X0X0X0X9Xi.u.U c V / 2.f.J.Q.Y.M.s.d.d.V.Z.I.I.T.Y.}.+X&X}.F._ 9 @         . $ = 9 U 6.8.'.Z.+./ } r.j.9X0X0X$Xf   ",
"  f @X0X0X0X0X0X0X0X$X%.E 9 c D _ $.t.d.N.M.w.6.w.M.C.F.Y.T._.Q.`.].}.}.T.t./ i 6 4 = @ & < 6 i D _ 2.A.d.<.^ =.u.,.:X0X0X$Xf   ",
"  f @X0X0X0X0X0X0X0Xv.Y p 4 x D ^  .$.O.$.$.+.@.6.d.F.Y.U.Y.I.F.F.I.'.+X].M.2.2.=./ M < < 9 x C / O.O.a.a.7._ ..w.l.E.0X0X$Xf   ",
"  f @X0X0X0X0X0X0X$X>.g < 4 k V D ^ ^ D / _ ^ D @.t.D.U.J.Z.V.M.N.Y.]..XY.f.7.8.d.7./ i 4 k V _  .=.+.5.9.7.+._ @.j.l.0X0X$Xf   ",
"  f @X0X0X0X0X0X5Xb.&.6 $ 1 9 k c V V v V M i x { t.F.U.J.V.M.x.x.U.T.T.Z.t.$.+.t.t.+.A t U (  . .{ @.+.2.2.+._ U { ,.;X0X$Xf   ",
"  f @X0X0X0X0X0X(.,.Y % @ & 4 4 4 9 y 0 9 4 < k U y.U.`.Q.K.C.N.V.J.T.F.t.+._ O.M.M.7.` x  . .' D M { +.` _ _ D A D / ~.0X$Xf   ",
"  f @X0X0X0X0X9Xl.} d X . $ & & $ $ & & $ @ < 9 D y.Q.}.}.Q.K.V.F.U.Z.C.2._ ' f.T.Y.f.$.M / F ^ D D B @./ D D D V M M b.0X$Xf   ",
"  f @X0X0X0X0X^.e.D 6 @ . $ $ @           $ 1 0 c  .D.[.XX[.Q.Y.F.C.J.d.+./ ^ Z.{._.f.t.9.<.<.<.+.U B { [ c k v M x d j.0X$Xf   ",
"  f @X0X0X0X6Xv.:.d 9 9 $ $ & , & X       X & 4 i D +.D.].].Q.J.F.C.M.9.` D ` Y.oXT.a.5.t.9.`  .F D  .@.[ M 4 9 i i i j.0X$Xf   ",
"  f @X0X0X0X|.e.] i x n t 9 i c M i =       $ 1 4 k D =.x.K.U.U.V.M.t.+.( D +.oX1X_.a.7.9.p./ V M x _ 3.} d = < 6 9 6 b.0X$Xf   ",
"  f @X0X0X0Xe.] x x x c v c D _ ' ^ c $     $ & 4 i M { 7.x.F.V.M.x.7._ D z 6.XX}.J.t.2.7.9.^ _ D M ^ @.] t $ . & & % #X0X$Xf   ",
"  f @X0X0X3XP x i U M k M D _ +.+._ V $     . & 1 i k D { 7.x.F.x.d.7._ M x =.F.Z.d.5.7.2.O.M U x i D T b 3         ; 0X0X$Xf   ",
"  f @X0X0XR.t 9 x _ U i x D / `  .^ z X       $ , 4 9 n { =.7.y.t.7.2./ x 9 { x.d.7.<.+.+. .M V v n a B 6 O         ;.0X0X$Xf   ",
"  f @X0X0X>.1 4 c  . .c x V ^ ^ D V 6 .       . $ & 9 c U _ +.3.7.6. .D 9 & / w.7.$.+._ ^ H H ( M 9 6 p =           k.0X0X$Xf   ",
"  f @X0X9XY = < i U  ._ V D ^ F V k &           X & 4 i M D / _ _ / D 9 $ $ d ^ _ / U F D D M c 5 9 t 3 O   $ 1 $ O ,.0X0X$Xf   ",
"  f @X0X6Xj $ = 9 M ^ _ U U ^ ^ c 9 X             $ < 4 9 i i x x i 1 X   1 i t x c c V M c x k y 9 = $     9 x 4 % L 0X0X$Xf   ",
"  f @X0X:Xe $ & 4 x D U _ _ ( D k <   . @ $         O $ X % & % $ X     t C c 9 1 1 9 i 0 0 i 9 4 = O     X i k 1 = e 9X0X$Xf   ",
"  f @X0X@X3 $ & 4 i M D _ ` ( G 0 $   $ $ $ X                     O = i C x i t = $ $ & & & < & $ $       $ i 9 6 3 e ;X0X$Xf   ",
"  f @X0X^.= $ < 9 M V D ^ _ ( v 9 .   . @ $ $ $               $ ] =.D k l M a t 1 .             .         & i l a 6 t |.0X$Xf   ",
"  f @X0XR.$ $ 1 a V D D ^ _ U z 1 O   . @ $ $ < $         $ t / V./ x y k c  .D c M =         + O         < x M a t e (.0X$Xf   ",
"  f @X0XG.$ & 4 x D D D ^ ^ M i t h     @ & & & 4 < , 9 i A V F =.x.@.M U R U i 5 t 1 X     + : ;       X 6 M M x t 6 $X0X$Xf   ",
"  f @X0Xm.$ 1 6 x M M M A v x 4 e !     X & 4 1 & < 9 k k t 9 x M { 6.{ M 9 i 4 1 1 1 1 O     > q O     $ i A V a t e ;X0X$Xf   ",
"  h $X0Xh.- e 9 M V x i k x 9 & ; ,.  . . @ 6 M i , 4 k M U @.w.V.D.N.7.[ M i 4 & < t } B 3 = * ; -     $ x V M i t 6 ,X0X$Xh   ",
"  h ;X0Xj.s t l M C t , 1 4 < . * k.. $ $ @ , k c 4 9 k V R  .y.N.F.x.s.=.D c i 4 1 t B P d - * % e     & x V c 9 6 t :X0X,Xh   ",
"  r n.,X,.t t x U ^ i . X $ X   ; ;.. & 1 & & 4 y 4 , 4 i c ^ 7.D.Q.U.V.s.{ D n n x d a a e 3 : O 6 O   & x M k 6 1 6 W.,Xn.r   ",
"  O r h f p p Z I P p ; ; ; ; ; 6 p ; e t p t e t t e e t b Z E &.r.:.*.| I B m g d d b s e r q ; r q ; e b m d e e p f h r O   ",
"                                                                                                                                "
};
