/* XPM */
static char *booba[] = {
/* columns rows colors chars-per-pixel */
"64 64 249 2 ",
"   c #010001",
".  c #0B0303",
"X  c #03040A",
"o  c #0B040B",
"O  c #0C0B0B",
"+  c #060A08",
"@  c #130C0A",
"#  c #170806",
"$  c #13110C",
"%  c #1B130C",
"&  c #1E180D",
"*  c #0C1915",
"=  c #141314",
"-  c #1B1512",
";  c #1A1A1A",
":  c #0D0D0F",
">  c #250806",
",  c #221B0D",
"<  c #2B160B",
"1  c #241C13",
"2  c #271E1A",
"3  c #391613",
"4  c #2B2115",
"5  c #24221A",
"6  c #2B2419",
"7  c #34231B",
"8  c #382719",
"9  c #2E220C",
"0  c #211F21",
"q  c #361F24",
"w  c #2B2222",
"e  c #2B2A2A",
"r  c #272626",
"t  c #342524",
"y  c #332C24",
"u  c #3A2A26",
"i  c #3A3429",
"p  c #363636",
"a  c #3A3A3A",
"s  c #3B3936",
"d  c #332731",
"f  c #1F2530",
"g  c #46170A",
"h  c #51150E",
"j  c #6F1D12",
"k  c #452B1A",
"l  c #4E301B",
"z  c #732319",
"x  c #462C25",
"c  c #493427",
"v  c #573828",
"b  c #493B36",
"n  c #5A3E33",
"m  c #472F30",
"M  c #6E342F",
"N  c #661D20",
"B  c #49423C",
"V  c #5A4135",
"C  c #5A453A",
"Z  c #58402A",
"A  c #6C432E",
"S  c #634333",
"D  c #68493A",
"F  c #744A39",
"G  c #79533C",
"H  c #6C503C",
"J  c #4B3B48",
"K  c #4B4646",
"L  c #534C4B",
"P  c #5A4745",
"I  c #5B4B53",
"U  c #595657",
"Y  c #555056",
"T  c #6C4C44",
"R  c #644B46",
"E  c #744D45",
"W  c #685449",
"Q  c #72544B",
"!  c #765748",
"~  c #685857",
"^  c #775A56",
"/  c #78625A",
"(  c #646057",
")  c #575C66",
"_  c #6C5C61",
"`  c #755D61",
"'  c #6B6569",
"]  c #796766",
"[  c #747071",
"{  c #4B6477",
"}  c #991B13",
"|  c #8B1A0E",
" . c #A71D15",
".. c #882519",
"X. c #992316",
"o. c #A82418",
"O. c #B4241B",
"+. c #B8291C",
"@. c #B02B16",
"#. c #962823",
"$. c #8C3529",
"%. c #95352A",
"&. c #AA2A26",
"*. c #BC2B22",
"=. c #B62A26",
"-. c #A63429",
";. c #B9342B",
":. c #BB3737",
">. c #A83A36",
",. c #C32C1A",
"<. c #C62C27",
"1. c #D22C27",
"2. c #C33325",
"3. c #CC3224",
"4. c #C4332C",
"5. c #CB332B",
"6. c #CA392C",
"7. c #D1352D",
"8. c #D13525",
"9. c #CC3532",
"0. c #CD3A34",
"q. c #CE3B3B",
"w. c #C53838",
"e. c #D23533",
"r. c #D23A35",
"t. c #D33D3B",
"y. c #D6353B",
"u. c #D02E36",
"i. c #86553D",
"p. c #954939",
"a. c #B04634",
"s. c #C84239",
"d. c #D4403D",
"f. c #D14034",
"g. c #CA3D47",
"h. c #D43E42",
"j. c #D63C46",
"k. c #885946",
"l. c #885C54",
"z. c #9B5B53",
"x. c #964F47",
"c. c #A74743",
"v. c #BC4244",
"b. c #AD5457",
"n. c #96634D",
"m. c #876558",
"M. c #996A56",
"N. c #A7735C",
"B. c #B26A59",
"V. c #876969",
"C. c #956B65",
"Z. c #8A746A",
"A. c #997569",
"S. c #897878",
"D. c #947D7C",
"F. c #9B7C7C",
"G. c #977675",
"H. c #8A6C77",
"J. c #A96A66",
"K. c #A5786A",
"L. c #A37A76",
"P. c #B5706B",
"I. c #A25862",
"U. c #C94747",
"Y. c #D44344",
"T. c #D4444B",
"R. c #D4494D",
"E. c #D9494E",
"W. c #D94447",
"Q. c #CC4653",
"!. c #D44553",
"~. c #D44B54",
"^. c #D94A52",
"/. c #D54C59",
"(. c #D94D5C",
"). c #DA4554",
"_. c #D5515D",
"`. c #D8525C",
"'. c #C1554D",
"]. c #CC5A67",
"[. c #D65360",
"{. c #D95563",
"}. c #D94E60",
"|. c #C66B69",
" X c #E14A53",
".X c #98847C",
"XX c #8B807F",
"oX c #A88477",
"OX c #BA8679",
"+X c #B1836A",
"@X c #7A7484",
"#X c #6E788A",
"$X c #5C7187",
"%X c #897C83",
"&X c #957D83",
"*X c #846D82",
"=X c #B0768B",
"-X c #C77A8B",
";X c #768297",
":X c #8B8488",
">X c #988687",
",X c #9A9798",
"<X c #918C93",
"1X c #A78888",
"2X c #B68C87",
"3X c #BA9488",
"4X c #AB9796",
"5X c #B69998",
"6X c #AD8D90",
"7X c #B4A29F",
"8X c #9095A8",
"9X c #AB9BAD",
"0X c #B8A8A6",
"qX c #B9B7B9",
"wX c #ABA6AA",
"eX c #C69B94",
"rX c #D59799",
"tX c #CB8C8D",
"yX c #CBA59A",
"uX c #C8B197",
"iX c #DA99AD",
"pX c #C7A9A6",
"aX c #D4A6A7",
"sX c #D5B1AA",
"dX c #C7B6BA",
"fX c #DAB5B2",
"gX c #C9ADB0",
"hX c #E2B4B5",
"jX c #DACAB9",
"kX c #B1AEC6",
"lX c #96B2C7",
"zX c #E5BDC1",
"xX c #C3C3C3",
"cX c #C9C9C9",
"vX c #CAC3C3",
"bX c #D8D6D6",
"nX c #DAC7C5",
"mX c #EBCBD6",
"MX c #EBD9DA",
"NX c #E4CACA",
"BX c #D9DBE1",
"VX c #EBE5E5",
"CX c #F2EBEC",
"ZX c #F1F0EF",
"AX c #F4F2F2",
"SX c #FAF5F5",
"DX c #FFFFFF",
"FX c #EFEBF1",
"GX c #EFDCE0",
/* pixels */
"                                                                                                                                ",
"  O e a a p p p p p p p p p p p p p p p p p p p p p p p p p p p p p p p p p p p p p p p p p p p p p p p p p p p p p p a a e O   ",
"  e ,XbXcXxXxXxXxXxXxXxXxXxXxXxXxXxXxXxXxXxXxXxXxXxXxXxXwX' ) { $X;X8XwXxXxXxXxXxXxXxXxXxXxXxXxXxXxXxXxXxXxXxXxXxXxXxXcXbX,Xe   ",
"  a bXDXDXDXDXDXDXDXDXDXDXDXDXDXDXDXDXDXDXDXDXDXDXDXAX:Xr J I P >XH.*X#X8XBXDXDXDXDXDXDXDXDXDXDXDXDXDXDXDXDXDXDXDXDXDXDXDXbXa   ",
"  a cXDXDXDXDXDXDXDXDXDXDXDXDXDXDXDXDXDXDXDXDXDXDXDX_ J gXdXN J.jXP.aXiX=X<XBXDXDXDXDXDXDXDXDXDXDXDXDXDXDXDXDXDXDXDXDXDXDXcXa   ",
"  p xXDXDXDXDXDXDXDXDXDXDXDXDXDXDXDXDXDXDXDXDXDXDXqXf P V.nXM aXmX=X-XNXmX9XkXDXDXDXDXDXDXDXDXDXDXDXDXDXDXDXDXDXDXDXDXDXDXcXp   ",
"  p xXDXDXDXDXDXDXDXDXDXDXDXDXDXDXDXDXDXDXDXDXDXDX[ r ^ 1X6XJ.P.I.J.].sXmXkXkXDXDXDXDXDXDXDXDXDXDXDXDXDXDXDXDXDXDXDXDXDXDXcXp   ",
"  p xXDXDXDXDXDXDXDXDXDXDXDXDXDXDXDXDXDXDXDXDXDXDXL q M M I.C.C.&X4XiXtXiXkXlXDXDXDXDXDXDXDXDXDXDXDXDXDXDXDXDXDXDXDXDXDXDXcXp   ",
"  p xXDXDXDXDXDXDXDXDXDXDXDXDXDXDXDXDXDXDXDXDXDXSXJ ; * ; = = 5 y $ @ u V.9X9XFXDXDXDXDXDXDXDXDXDXDXDXDXDXDXDXDXDXDXDXDXDXcXp   ",
"  p xXDXDXDXDXDXDXDXDXDXDXDXDXDXDXDXDXDXDXDXDXDX[ * * + 1 m.V.c 2XoXZ.~ % % d 0XDXDXDXDXDXDXDXDXDXDXDXDXDXDXDXDXDXDXDXDXDXcXp   ",
"  p xXDXDXDXDXDXDXDXDXDXDXDXDXDXDXDXDXDXDXDXDXDXY : + X O B U % oXuXR G.oX8 + L DXDXDXDXDXDXDXDXDXDXDXDXDXDXDXDXDXDXDXDXDXcXp   ",
"  p xXDXDXDXDXDXDXDXDXDXDXDXDXDXDXDXDXDXDXDXDXDXbX+ X O 4 I = % 3XOXC.F.m.oX@ :XDXDXDXDXDXDXDXDXDXDXDXDXDXDXDXDXDXDXDXDXDXcXp   ",
"  p xXDXDXDXDXDXDXDXDXDXDXDXDXDXDXDXDXDXDXDXDXDXDXe   , V 6 + 7 eXeXeXfXyXOX] DXDXDXDXDXDXDXDXDXDXDXDXDXDXDXDXDXDXDXDXDXDXcXp   ",
"  p xXDXDXDXDXDXDXDXDXDXDXDXDXDXDXDXDXDXDXDXDXDXAXe - 7 v < u c sXhXyXpXsXoXMXDXDXDXDXDXDXDXDXDXDXDXDXDXDXDXDXDXDXDXDXDXDXcXp   ",
"  p xXDXDXDXDXDXDXDXDXDXDXDXDXDXDXDXDXDXDXDXDXDXAXy % 7 S +XF T 5X3XsXsXyXL.VXDXDXDXDXDXDXDXDXDXDXDXDXDXDXDXDXDXDXDXDXDXDXcXp   ",
"  p xXDXDXDXDXDXDXDXDXDXDXDXDXDXDXDXDXDXDXDXDXDXDX,X% 9 c ! D ^ G.6XpXsXeXC.VXDXDXDXDXDXDXDXDXDXDXDXDXDXDXDXDXDXDXDXDXDXDXcXp   ",
"  p xXDXDXDXDXDXDXDXDXDXDXDXDXDXDXDXDXDXDXDXDXDXDXDXy , , R D ^ F.1X7X5X3XD.DXDXDXDXDXDXDXDXDXDXDXDXDXDXDXDXDXDXDXDXDXDXDXcXp   ",
"  p xXDXDXDXDXDXDXDXDXDXDXDXDXDXDXDXDXDXDXDXDXDXDXDXb % 4 C x P V.5X5X0X4X0XDXDXDXDXDXDXDXDXDXDXDXDXDXDXDXDXDXDXDXDXDXDXDXcXp   ",
"  p xXDXDXDXDXDXDXDXDXDXDXDXDXDXDXDXDXDXDXDXDXDXDXDXU O 1 C A..X1XpX7X>XZ.VXDXDXDXDXDXDXDXDXDXDXDXDXDXDXDXDXDXDXDXDXDXDXDXcXp   ",
"  p xXDXDXDXDXDXDXDXDXDXDXDXDXDXDXDXDXDXDXDXDXDXDXDX' . $ 1 / pX1X6XG.^ ~ DXDXDXDXDXDXDXDXDXDXDXDXDXDXDXDXDXDXDXDXDXDXDXDXcXp   ",
"  p xXDXDXDXDXDXDXDXDXDXDXDXDXDXDXDXDXDXDXDXDXDXDXDX] # . @ u ~ ~ R b x D.DXDXDXDXDXDXDXDXDXDXDXDXDXDXDXDXDXDXDXDXDXDXDXDXcXp   ",
"  p xXDXDXDXDXDXDXDXDXDXDXDXDXDXDXDXDXDXDXDXDXDXDXDX] < # @ o O - t R G..XbXDXDXDXDXDXDXDXDXDXDXDXDXDXDXDXDXDXDXDXDXDXDXDXcXp   ",
"  p xXDXDXDXDXDXDXDXDXDXDXDXDXDXDXDXDXDXDXDXDXDXAX1Xx k v < 7 / >XZ.G.6X1Xl.tXNXDXDXDXDXDXDXDXDXDXDXDXDXDXDXDXDXDXDXDXDXDXcXp   ",
"  p xXDXDXDXDXDXDXDXDXDXDXDXDXDXDXDXDXDXDXDXCXpXM h g v M.M S ! 2X1X5XgX5Xz.j.;.].fXAXDXDXDXDXDXDXDXDXDXDXDXDXDXDXDXDXDXDXcXp   ",
"  p xXDXDXDXDXDXDXDXDXDXDXDXDXDXDXDXDXDXDXgX$.#.| ..j M M.N.k.K.eXyX5XdX2Xc.0.5.3.1.U.zXSXDXDXDXDXDXDXDXDXDXDXDXDXDXDXDXDXcXp   ",
"  p xXDXDXDXDXDXDXDXDXDXDXDXDXDXDXDXDXAXP. .X.o. .w.} $.i.+XN.3XyXpX5X5Xx.^.;.y.y.4.0.;.'.VXDXDXDXDXDXDXDXDXDXDXDXDXDXDXDXcXp   ",
"  p xXDXDXDXDXDXDXDXDXDXDXDXDXVX5XpX2Xb.;.o.o. .*.5.*.&.-.|.OXOXtXrXtXb.~.W.4.e.e.9.e.5.9.v.rXaXrXzXDXDXDXDXDXDXDXDXDXDXDXcXp   ",
"  p xXDXDXDXDXDXDXDXDXDXDXDXnXx.} X.X.6.3.3.&. .6.e.8.8.6.:.U.U.U.'.U.E.T.q.9.t.t.9.t.9.0.6.v.&.q.g.hXDXDXDXDXDXDXDXDXDXDXcXp   ",
"  p xXDXDXDXDXDXDXDXDXDXDXnX%.*.X.o.o.0.0.0.=.o.6.8.5.5.9.9.t.y.j.T.T.T.j.j.j.j.t.w.q.q.4.y.w.w.q.s.Q.MXDXDXDXDXDXDXDXDXDXcXp   ",
"  p xXDXDXDXDXDXDXDXDXDXVX$.o.2.6.o.=.q.t.y.*.*.6.e.5.e.e.*.6.s.Y.T.j.j.W.j.W.W.W.q.t.W.=.j.w.g.E.:. X].AXDXDXDXDXDXDXDXDXcXp   ",
"  p xXDXDXDXDXDXDXDXDXDXJ.;.o.O.e.=.*.0.e.e.6.6.+.e.e.e.e.e.*.3.t.q.s.Y.W.W.T.T.W.j.j.W.:.Q.~.T.j.^.Y.T.iXDXDXDXDXDXDXDXDXcXp   ",
"  p xXDXDXDXDXDXDXDXDXNX..o.;.+.*.w.=.e.e.*.9.6.O.0.t.t.t.t.e.+.d.j.W.W.W.T.T.T.T.W.W.T.:.Q.~.E.T.E.E.E.].AXDXDXDXDXDXDXDXcXp   ",
"  p xXDXDXDXDXDXDXDXDXOX .o.o.6.*.;.=.9.t.O.t.d.O.0.t.t.t.d.0.0.O.W.T.T.T.T.~.~.~.T.^.~.:.U.^.T.^.).~.(./.fXDXDXDXDXDXDXDXcXp   ",
"  p xXDXDXDXDXDXDXDXCX$.2.*.=.+.6.o.=.6.d.*.j.t.*.t.j.j.j.W.t.d.6.q.~.!.!.~./././././.~.:.Y.T.T.~.}.(.~.~.|.DXDXDXDXDXDXDXcXp   ",
"  p xXDXDXDXDXDXDXDXgX..} *.*.+.+.o.&.O.e.9.j.t.9.j.W.W.W.E.W.W.Y.=.~./.^.~.`.`.[.{.{.`.U.q.q.T.~.`.!.).`.|.DXDXDXDXDXDXDXcXp   ",
"  p xXDXDXDXDXDXDXDXJ...}  .;.2.O. .X.o.e.9.t.d.q.W.W.T.T.E.T.W.W.;.E.~.~.`.`.[.{.{.{.[.~.q.w.j.^.Q.!.(./.[.SXDXDXDXDXDXDXcXp   ",
"  p xXDXDXDXDXDXDXDXp.| o.o.} o.;.X.| X.5.e.e.t.t.W.T.T.E.^.T.W.0.W.Y.~.~.`.`.[.{.{.{.{.`.W.6.w.g.!.(.(.(.Q.GXDXDXDXDXDXDXcXp   ",
"  p xXDXDXDXDXDXDXVX-.@.<.<.<.O. .&...X.+.3.e.e.d.W.T.E.^.E.E.W.4.W.W.E.~.`.`.[.{.{.{.{.`.Y. .q.g./././.!.g.MXDXDXDXDXDXDXcXp   ",
"  p xXDXDXDXDXDXDXnX&.2.q.5.5.5.5.2.X.| O.,.8.e.t.d.W.T.^.E.E.d.5.t.W.T.~.~.`.`.[.[.[.`.`.:.:.W.T././.!.!.Q.hXDXDXDXDXDXDXcXp   ",
"  p xXDXDXDXDXDXDX>X$.%.>.p.a.a.a.a.-.| o.,.3.e.e.t.W.T.^.^.E.t.5.8.W.W.E.~.~.`.`./.`././.&.w.U.Q.Q.Q.~.~.!.].AXDXDXDXDXDXcXp   ",
"  p xXDXDXDXDXDXAXc v F G G k.n.K.+XB.h X. .2.8.e.e.d.W.E.T.W.t.<.3.t.s.W.E.~.~.~./.~.~.Q.z z.L.oXL.A.l.l.x.z.CXDXDXDXDXDXcXp   ",
"  p xXDXDXDXDXDXbXi v D H ! k.n.n.+XP.A .. .,.3.8.6.0.q.W.T.W.t.<.<.0.q.t.j.T.T.T.T.T.!.v.x.J.L.A.L.G.] V.^ L VXDXDXDXDXDXcXp   ",
"  p xXDXDXDXDXDX>Xc D ! ! m.m.m.+XOXOXE z } o.O.+.+.e.q.0.W.j.t.0.+.e.e.e.t.t.t.j.Y.j.g.z k.m.S.Z.A..XS.] / I 0XDXDXDXDXDXcXp   ",
"  p xXDXDXDXDXDXW c H ! ! ! m.M.K.K.K.! h h z z | #.:.0.5.t.j.e.e. .e.e.8.e.9.e.e.w.j.>.g k.m.Z.A.oX1XH.] / L :XDXDXDXDXDXcXp   ",
"  p xXDXDXDXDXDXi c Q W ! ! m.l.m.C.C.E F i.i.m.5XsXG.J.w.y.s.9.f. .e.y.1.8.3.8.5.;.-.N 3 i.M.C.G.D.6X6XV.( L [ DXDXDXDXDXcXp   ",
"  p xXDXDXDXDXDX8 C W C H ! l.T W C W k S G m.1X5X5XF.>XoXP.b.v.s. .8.3.*.1.7.=.#.p.z.3 , A k.M.G.1XD.&X%X' Y U DXDXDXDXDXcXp   ",
"  p xXDXDXDXDXAX8 S D Z F k.k.T b b v A G v >X,XvX~ S.S.S.>X&XD.M.c.:.4.,.1.6...J.aXeXm # l A G m.G.Z.[ ' _ Y ) DXDXDXDXDXcXp   ",
"  p xXDXDXDXDXAX7 S H v ! k.k.H u 7 v A F H 0XwX,XK ~ ] H.%XS.&X>XH.V.x.c.>.$.N.eX5XpX1X, 3 k M ! m.W ` _ ' K ' DXDXDXDXDXcXp   ",
"  p xXDXDXDXDXAX< ! v S k.n.M.m.x % c l k 8 4X:X[ L ] ~ _ D..X.XS.%X>XS.] ^ E T D P ~ ^ C u x S A H l.G.V.B K U DXDXDXDXDXcXp   ",
"  p xXDXDXDXDXZX< S v G n.n.M.m.D ^ ! c 7 k u - K s [ ~ L T G.L.G.&X&X>X>XV.V.` ^ ] ] ] ^ ~ _ C.A.A.K.A.m.! m U DXDXDXDXDXcXp   ",
"  p xXDXDXDXDXZX6 v v S M.N.M.! ~ / / W P 7 % $ * + = 0 u b C ! ^ ^ G.F.&X5X4X>X>X%X%X%X>X:X@X1X3X2X2XoXZ.H P ~ DXDXDXDXDXcXp   ",
"  p xXDXDXDXDXAX8 k 9 c F F C R P P W L U I P t - . X O e w 1 5 7 i ! ^ ~ >X1X>X,X,X<X<X:X@X@XF.L.L.L.G.m.S C ] DXDXDXDXDXcXp   ",
"  p xXDXDXDXDXAX< c 7 8 k 3 u 8 c V b K L I ~ ~ K Y 0 o - u K i 1 4 c 8 i B U [ ' U ' :X' ) Y / ! D R ^ ^ v n :XDXDXDXDXDXcXp   ",
"  p xXDXDXDXDXAX1 v G 9 % 1 4 6 , 8 u i y b B K L L U e O X = i D n 8 % - 5 0 e L P ` J K K W ! E C 8 x n R n 4XDXDXDXDXDXcXp   ",
"  p xXDXDXDXDXDX4 k G c y 8 1 % % & & 7 6 8 i s B K K K ;     @ x M E R 7 # @ ; 4 c T T W ^ / ! E ^ V.` V.G.c xXDXDXDXDXDXcXp   ",
"  p xXDXDXDXDXDXL 7 l c y 7 4 - - % % 5 1 1 1 y 4 t e ; =       . > 8 c C C 4 @ $ 1 7 k c n ! m.V.G.1X6X5XV.b VXDXDXDXDXDXcXp   ",
"  p xXDXDXDXDXDXwX1 > 1 y e 5 - $ $ $ $ $ $ @ - = : : O o             . % 2 b B p - @ , 1 7 n T m.G.C.F.F.b ] DXDXDXDXDXDXcXp   ",
"  p xXDXDXDXDXDXVX5 1 % % $ $ O +           X   X X : O X     .   X     X   . % < 7 t u t 5 1 8 k l c c 7 6 dXDXDXDXDXDXDXcXp   ",
"  p xXDXDXDXDXDXDXL = O             X       X X X                             o . . o O : $ O O # % 1 1 1 u AXDXDXDXDXDXDXcXp   ",
"  a cXDXDXDXDXDXDXAXxXqXxXwXwXU                   . . . .     . . @ . .                     . o o . O - r ,XDXDXDXDXDXDXDXcXa   ",
"  a bXDXDXDXDXDXDXDXDXDXDXDXDX<X.               . % > > # # # > > 3 > > .               X o o K bXqX,X%XwXDXDXDXDXDXDXDXDXbXa   ",
"  e ,XbXcXcXcXcXcXcXcXcXcXcXcXU .               . # > > 3 g g g 3 > > > . .             X . . b cXcXcXcXcXcXcXcXcXcXcXcXbX,Xe   ",
"  O e a a p p p p p p p p p p e 0 0 0 0 0 0 0 0 0 w w t t t t x t t t w w 2 ; 0 0 0 0 0 0 0 0 w p p p p p p p p p p p a a e O   ",
"                                                                                                                                "
};
