/* XPM */
static char *harambe[] = {
/* columns rows colors chars-per-pixel */
"64 64 245 2 ",
"   c #000000",
".  c #090603",
"X  c #0C0B08",
"o  c #110E09",
"O  c #120D06",
"+  c #16120C",
"@  c #1B150C",
"#  c #1B160A",
"$  c #191611",
"%  c #1E1A13",
"&  c #171613",
"*  c #231B0D",
"=  c #211807",
"-  c #231C13",
";  c #241E17",
":  c #2C230D",
">  c #2B2314",
",  c #262219",
"<  c #2B241C",
"1  c #2B2617",
"2  c #32261C",
"3  c #332B1C",
"4  c #352A18",
"5  c #3A311D",
"6  c #2A2A2A",
"7  c #2C2922",
"8  c #332C23",
"9  c #3A2D23",
"0  c #352E28",
"q  c #382F29",
"w  c #3C3324",
"e  c #36312A",
"r  c #3B342C",
"t  c #3C362A",
"y  c #363636",
"u  c #3C3933",
"i  c #3A3A3A",
"p  c #3D3732",
"a  c #413524",
"s  c #433A25",
"d  c #433629",
"f  c #433B2C",
"g  c #4A3D2C",
"h  c #483B26",
"j  c #433C34",
"k  c #473D35",
"l  c #4B422C",
"z  c #4B4123",
"x  c #55462E",
"c  c #4B4334",
"v  c #4B443B",
"b  c #4E493E",
"n  c #474337",
"m  c #534636",
"M  c #534A3C",
"N  c #5B4D3C",
"B  c #554A37",
"V  c #5B513C",
"C  c #5E5639",
"Z  c #65593D",
"A  c #6F4B32",
"S  c #4E4941",
"D  c #4B4946",
"F  c #544D43",
"G  c #5A4E43",
"H  c #555242",
"J  c #5C5344",
"K  c #565249",
"L  c #5B544B",
"P  c #5D594C",
"I  c #5B5851",
"U  c #625444",
"Y  c #6A5D45",
"T  c #63564A",
"R  c #635A4C",
"E  c #6A5B4B",
"W  c #645946",
"Q  c #645C52",
"!  c #6A5D53",
"~  c #645F59",
"^  c #6C624D",
"/  c #65624A",
"(  c #72644C",
")  c #756549",
"_  c #6C6354",
"`  c #6C655A",
"'  c #6A6658",
"]  c #736554",
"[  c #756A56",
"{  c #726658",
"}  c #746B5B",
"|  c #7A6D5B",
" . c #7B6A54",
".. c #7C735D",
"X. c #77725E",
"o. c #746C62",
"O. c #796F62",
"+. c #7B7365",
"@. c #7C756A",
"#. c #7E796C",
"$. c #787366",
"%. c #7E7C75",
"&. c #6D6A62",
"*. c #875D41",
"=. c #836C5A",
"-. c #83745B",
";. c #867658",
":. c #99775E",
">. c #88634A",
",. c #837563",
"<. c #8A7A65",
"1. c #84766A",
"2. c #847A6C",
"3. c #8B7C6B",
"4. c #877766",
"5. c #927D6B",
"6. c #977A64",
"7. c #857D71",
"8. c #897E74",
"9. c #8B826D",
"0. c #92826D",
"q. c #97856A",
"w. c #8C8374",
"e. c #8C857B",
"r. c #898578",
"t. c #958473",
"y. c #9B8B75",
"u. c #92877A",
"i. c #948B7C",
"p. c #9B8C7C",
"a. c #988674",
"s. c #9A9278",
"d. c #A28C79",
"f. c #A3937C",
"g. c #A8987B",
"h. c #AC8E76",
"j. c #888681",
"k. c #948C82",
"l. c #998F83",
"z. c #9C9284",
"x. c #9B958B",
"c. c #9A958A",
"v. c #9B9996",
"b. c #A39484",
"n. c #A49A85",
"m. c #A39789",
"M. c #A49A8C",
"N. c #AA9C8C",
"B. c #AA9784",
"V. c #B29A84",
"C. c #B59B89",
"Z. c #A29D92",
"A. c #AA9F92",
"S. c #A19F9A",
"D. c #ACA289",
"F. c #B3A38D",
"G. c #B6A98B",
"H. c #BDB08D",
"J. c #ACA394",
"K. c #A9A59A",
"L. c #B4A593",
"P. c #B5AA94",
"I. c #B4AC9C",
"U. c #BBAE9B",
"Y. c #B8A995",
"T. c #BEB29A",
"R. c #BBB39A",
"E. c #AEABA5",
"W. c #B3ADA2",
"Q. c #BAAEA3",
"!. c #BCB3A3",
"~. c #B9B5AA",
"^. c #BAB9B5",
"/. c #C39F87",
"(. c #C2B28B",
"). c #C3AD99",
"_. c #C2B39C",
"`. c #C8B69A",
"'. c #CAAB91",
"]. c #C3B4A3",
"[. c #C9B5A6",
"{. c #C3B9A4",
"}. c #C4BBAB",
"|. c #CCBCAC",
" X c #C6B7A9",
".X c #D2BBAA",
"XX c #C3BDB3",
"oX c #C2BEBA",
"OX c #D1BEB2",
"+X c #C0AFA0",
"@X c #D1C299",
"#X c #CBC2AD",
"$X c #CCC3A7",
"%X c #D7C7AB",
"&X c #DED2A8",
"*X c #C6C1B4",
"=X c #CBC3B3",
"-X c #CCC6BB",
";X c #C7C5BC",
":X c #D3C3B3",
">X c #D3C9B4",
",X c #D3CBBB",
"<X c #DCCCBB",
"1X c #D9C7B6",
"2X c #DBD1BE",
"3X c #D8D1B9",
"4X c #E0CCBD",
"5X c #E4D8BA",
"6X c #E2D7AA",
"7X c #ECE0BF",
"8X c #C3C3C3",
"9X c #C9C9C9",
"0X c #CAC8C4",
"qX c #D3CEC4",
"wX c #D2CFCA",
"eX c #DDCEC2",
"rX c #DBD3C4",
"tX c #DBD5C9",
"yX c #D9D4CA",
"uX c #DDDAD3",
"iX c #D9D8D6",
"pX c #E2D3C4",
"aX c #E2DBCC",
"sX c #E7D9C7",
"dX c #E3DED2",
"fX c #E2DFD8",
"gX c #F1DECF",
"hX c #ECE2C7",
"jX c #E4E1D6",
"kX c #EAE3D6",
"lX c #E4E2DC",
"zX c #EAE5DB",
"xX c #EBE8DE",
"cX c #EFE9D6",
"vX c #F0ECDB",
"bX c #ECEAE4",
"nX c #EEEDEB",
"mX c #E7E5E1",
"MX c #F0EEE5",
"NX c #F3F2ED",
"BX c #F4F1E7",
"VX c #F6F4F2",
"CX c #FAF9F6",
"ZX c #FFFFFF",
"AX c #F8F7F6",
/* pixels */
"                                                                                                                                ",
"  X 6 i i y y y y y y y y y y y y y y y y y y y y y y y y y y y y p y y y y y y y y y y y y y y y y y y y y y y y y y i i 6 X   ",
"  6 v.iX9X8X8X8X8X8X8X8X8X8X8X8X8X8X8X8X8X8X8X8X8X8X8X8X8X8X8XoXoX;X8X8X8X8X8X8X8X8X8X8X8X8X8X8X8X8X8X8X8X8X8X8X8X8X8X9XiXv.6   ",
"  i iXZXZXZXZXZXZXZXZXZXZXZXZXZXZXZXZXZXZXZXZXZXZXZXZXZXAXaX`.`.`.`.=XMXZXZXZXZXZXZXZXZXZXZXZXZXZXZXZXZXZXZXZXZXZXZXZXZXZXiXi   ",
"  i 9XZXZXZXZXZXZXZXZXZXZXZXZXZXZXZXZXZXZXZXZXZXZXZXZXNX#X`./././.'.V.U.bXZXZXZXZXZXZXZXZXZXZXZXZXZXZXZXZXZXZXZXZXZXZXZXZX9Xi   ",
"  y 8XZXZXZXZXZXZXZXZXZXZXZXZXZXZXZXZXZXZXZXZXZXZXZXZX2XN.b.6.:.6.g.V.3.~.VXZXZXZXZXZXZXZXZXZXZXZXZXZXZXZXZXZXZXZXZXZXZXZX9Xy   ",
"  y 8XZXZXZXZXZXZXZXZXZXZXZXZXZXZXZXZXZXZXZXZXZXZXZXMXU.8.3.<.t.d.d.d.a.z.iXZXZXZXZXZXZXZXZXZXZXZXZXZXZXZXZXZXZXZXZXZXZXZX9Xy   ",
"  y 8XZXZXZXZXZXZXZXZXZXZXZXZXZXZXZXZXZXZXZXZXZXZXCXrXt.4.b.L.C.C.C.b.b.p. XVXZXZXZXZXZXZXZXZXZXZXZXZXZXZXZXZXZXZXZXZXZXZX9Xy   ",
"  y 8XZXZXZXZXZXZXZXZXZXZXZXZXZXZXZXZXZXZXZXZXZXZXMX!.d.<.<.>.*.>.:.f.d.1.l.iXZXZXZXZXZXZXZXZXZXZXZXZXZXZXZXZXZXZXZXZXZXZX9Xy   ",
"  y 8XZXZXZXZXZXZXZXZXZXZXZXZXZXZXZXZXZXZXZXZXZXVXtXL.t.=.>.A A A A :.d.a.3.W.VXZXZXZXZXZXZXZXZXZXZXZXZXZXZXZXZXZXZXZXZXZX9Xy   ",
"  y 8XZXZXZXZXZXZXZXZXZXZXZXZXZXZXZXZXZXZXZXZXZXxX}.b.y.6.6.6.5.q.q.h.V.N.u.x.bXZXZXZXZXZXZXZXZXZXZXZXZXZXZXZXZXZXZXZXZXZX9Xy   ",
"  y 8XZXZXZXZXZXZXZXZXZXZXZXZXZXZXZXZXZXZXZXZXCXaX}.U.Y.F.Y.U.].`._._._.F.w.i.mXZXZXZXZXZXZXZXZXZXZXZXZXZXZXZXZXZXZXZXZXZX9Xy   ",
"  y 8XZXZXZXZXZXZXZXZXZXZXZXZXZXZXZXZXZXZXZXZXMXaX}.!.F.| J Q { ] ] ] E ( ^ 9.fXZXZXZXZXZXZXZXZXZXZXZXZXZXZXZXZXZXZXZXZXZX9Xy   ",
"  y 8XZXZXZXZXZXZXZXZXZXZXZXZXZXZXZXZXZXZXCXbXaX<X}.P.0.c j q - - - - - 3 l ^ W.nXZXZXZXZXZXZXZXZXZXZXZXZXZXZXZXZXZXZXZXZX9Xy   ",
"  y 8XZXZXZXZXZXZXZXZXZXZXZXZXZXZXZXZXAXzXaXrX,X#X!.n.a.| Z.x.k.o.F p j f f B } #.W.lXZXZXZXZXZXZXZXZXZXZXZXZXZXZXZXZXZXZX9Xy   ",
"  y 8XZXZXZXZXZXZXZXZXZXZXZXZXZXVXmXwX=X=X,X:X].U.XXp.b.4.u.K.oX~.k.Q _ } l f b v b w.XXVXZXZXZXZXZXZXZXZXZXZXZXZXZXZXZXZX9Xy   ",
"  y 8XZXZXZXZXZXZXZXZXZXZXZXZXnXN.| | a.Y.].N.i.i.U.b.A.z.w.A.oXE.e.J _ 4.V M v v j 2.L.~.VXZXZXZXZXZXZXZXZXZXZXZXZXZXZXZX9Xy   ",
"  y 8XZXZXZXZXZXZXZXZXZXZXZXlXb.3.0.a.y.C.B.t.b.B.L.z.i.K.m.W.Z.W.#.` @.9.W M j j j 8.J.J.iXZXZXZXZXZXZXZXZXZXZXZXZXZXZXZX9Xy   ",
"  y 8XZXZXZXZXZXZXZXZXZXCXwXx.#.| 4.5.t.t.t.t.C.F.U.p.4.M.Q.E.~ ` r.e.{ } M f 8 e p @.W.J.K.lXZXZXZXZXZXZXZXZXZXZXZXZXZXZX9Xy   ",
"  y 8XZXZXZXZXZXZXZXZXNX;XW.k.o.E ] 4.5.5.5.q.6.0._.N.@.z.}.W.;XtX~.{ J J c 3 3 8 0 L M.J.Z.W.nXZXZXZXZXZXZXZXZXZXZXZXZXZX9Xy   ",
"  y 8XZXZXZXZXZXZXCXlX=X!.J.w.{ T E 4.4.=.=. .N p.4X|.i.i.F.m.A.U.3._ J c t * > 2 2 j u.M.M.k.XXZXZXZXZXZXZXZXZXZXZXZXZXZX9Xy   ",
"  y 8XZXZXZXZXZXVXqXU.!.W.m.@.! G ] |  .E U g | :XgXsXL.w.3.@.7.@.T M e t 3 - 2 2 < e u.u.k.#.x.bXZXZXZXZXZXZXZXZXZXZXZXZX9Xy   ",
"  y 8XZXZXZXZXZX0Xz.N.!.L.x.@.J M _ E N g d U +XsXsXsX[.3.] J c c f 3 > < 2 2 9 9 > q z.u.2.` @.qXZXZXZXZXZXZXZXZXZXZXZXZX9Xy   ",
"  y 8XZXZXZXZXfXM.u.J.U.Z.l.@.F F G j 9 9 U A.<X4X1X4X4Xb.m 8 > * @ @ - 2 9 9 d t < j m.k.@.L R ~.ZXZXZXZXZXZXZXZXZXZXZXZX9Xy   ",
"  y 8XZXZXZXiXv.w.i.M.M.i.k.O.L v e 2 f ! m.|.:X:X:X4XpX|.| 2 * @ @ * < 8 9 t d t 3 v m.e.} J M x.VXZXZXZXZXZXZXZXZXZXZXZX9Xy   ",
"  y 8XZXZXmXJ.7.e.e.i.l.7.e.} Q p < S u.L.}.:XOX:X1X<X1X|.N.x * # = - 2 9 e j c 8 < R z.2.L M c @.iXZXZXZXZXZXZXZXZXZXZXZX9Xy   ",
"  y 8XZXNX~.e.e.l.k.x.i.e.1.` L 8 8 Q A.1XeX1XOXOXOX|.|.].B.4.m - - 2 9 d j F G - < _ i.w.R v f P ~.ZXZXZXZXZXZXZXZXZXZXZX9Xy   ",
"  y 8XVX0Xx.k.k.k.k.7.7.7.o.F v p v F l.aXfXeX|.[.[.[.[.[.V.U.p.d 9 t f v F T M - e o.i.i.O.M n v e.nXZXZXZXZXZXZXZXZXZXZX9Xy   ",
"  y 8XlXZ.k.e.e.e.8.Q F L v p 0 j L L M.rXzXdX1X|.[.[.|.[.F.:X].| k k F L T J t % v i.i.i.2.] J b ` wXZXZXZXZXZXZXZXZXZXZX9Xy   ",
"  y ;X;Xk.e.e.e.7.$.j e v F L _ @.8.8.m. XtXaXaX1XOXOX1XOXF.:X:XY.4.T ! ] R g @ + L J.a.p.i.| | R ` oXZXZXZXZXZXZXZXZXZXZX9Xy   ",
"  y ^.Z.8.Q L S S M e 8 k b M ] a.a.{ ! =.p.F.:XpX4X1X%X%X`.<X4X#X[.N.4.] B > X O n m.s.3.i.[ ..@._ E.ZXZXZXZXZXZXZXZXZXZX9Xy   ",
"  i K.k.o.P L L v j 0 p j k { 1.} } T G E  .=.5.L.1XaXsXpX#XsXsX1X#X[.B.Y 4 O X . < 2.z.N.n.} } @.o.k.lXZXZXZXZXZXZXZXZXZX9Xy   ",
"  D e.@.` Q R L v j p e j R Q Q R ! T E E U E E ] p. XpXpX:X,XrX>X`.n.( 5 # # O . % _ z.p.s..._ ..2.7.9XZXZXZXZXZXZXZXZXZX9Xy   ",
". &.L ! ` Q L L S S v j F I K L R L G U E U U V m J | L.].p.J.`.d.) z : * $ @ @   @ F @.} | @.} } w.@.Z.nXZXZXZXZXZXZXZXZX9Xy   ",
"& _ K Q } Q Q _ L L F S F v S F L M c G N N U T m b G w.w.2.U.y.x : = * > > % @ X K e M U 4.2.4.@.w.7.#.9XZXZXZXZXZXZXZXZX9Xy   ",
"& ` Q Q o.o.@.o.` o.Q I F j n S v 8 8 9 d M E _ M k e O.L.U.=XU.Y : > 5 d 3 - + 7 E.j M J 4.4.} 2.u.u.@.Z.mXZXZXZXZXZXZXZX9Xy   ",
"X } ` ' o.o.@.o.@.2.#.o.` v v c < O O - d N Y U c t < b d.Y.|.L.-.l s c c 8 % + I iX_ F R -.( m _ @.@.2.o.Z.iXZXZXZXZXZXZX9Xy   ",
"  K ` ` o.o.o.$.2.z.U.U.U.w.i.} c < $ $ d N U k 3 > - 8 ] V.Y.g.<.( N N M 8 $ % K.nXi.f {  .) g J @.Q _ R L j.wXVXZXZXZXZX9Xy   ",
"  n } Q &.&.} 2.M.,XtXaXrXqXtX}.P.i.@.v d x g 3 > 5 3 < b 3.Y.V.y.<.4.3._ 9 @ L iXZXx.e v ( ( Z ( [ T R F S L %.^.VXZXZXZX9Xy   ",
"  i r.Q ` Q ` z.tXlXrX,XtXxXjXaXrX,X=Xi.c d 4 - 5 l t > e T d.Y.B.g.b.M.@.t j ^.ZXZXE.7 8 V W [ y...J _ _ Q P L ` ~.ZXZXZX9Xy   ",
"  p K.@.Q v } XXbXzXrXtXzXzXpXrXrX=X,XU.L f t > g m N t 8 v E B.m.p.i.w.Q p c.MXZXZXwXe , M ] | a.<.E } @._ P v c } iXZXZX9Xy   ",
"  y ^.E._ J z.iXMXbXlXmXjXaXrX,X,X;X,XU.v c E c ^ ] ..g e f v 1.u.1.} Q v @.iXZXZXZXnXF % F F R | <.E M R } R M H H I.ZXZX9Xy   ",
"  y 8XnXwX;XtXzXbXbXbXjXrX,X2X,X*XrXrXM.j Q g.| <.( [ N 8 8 e Q 1._ R L F ^.ZXZXZXZXZXQ , < 8 c G } ] U E [ ] R H J a.bXZX9Xy   ",
"  y 8XZXZXVXzXaXaXaXaX,X>X,XrX,XtXtX-X@.j | -.( q.) ;.h % 8 0 L o.Q L F %.mXZXZXZXZXZXK.j $ 8 p M [ | _ [ 4.4.R Q _ 9.qXZX9Xy   ",
"  y 8XZXZXVXdX2X#X#X=X>X,XqXrXwXwXrX=X` $ + < > 4 4 4 @ @ < e F I L Q F S.ZXZXZXZXZXZXbXP l f F R W M f M ..w.@.} @.+.*XZX9Xy   ",
"  y 8XZXZXVXaX:X}.}.!.#XaXdXdX;X*XtX=X} +       . . . O $ e j n j F j ~ 9XZXZXZXZXZXZXZXwXa.W L J F g f p M } u.w.{ [ W.ZX9Xy   ",
"  y 8XZXZXNXtX=X}.=X|.2XzXzXtX,XrXaX>X7.%   o o O X o $ - j F F b e , j.CXZXZXZXZXZXZXZXZXwX} M F F M g 3 3 t J _ J c +.VX9Xy   ",
"  y 8XZXZXNXrX=X|.|.>XjXjXdXrX;X,XtX>Xk.7 . < e < , ; % - e F v e , S 0XZXZXZXZXZXZXZXZXZXNXK.^ M f f d 3 @ @ 3 f c c ^ wX9Xy   ",
"  y 8XZXZXVXaX:X#X,X:XrXrX,X,X*X=X,X}.k.e X 7 } $.L v < - j j e < ; j.ZXZXZXZXZXZXZXZXZXZXZXlXz.^ c j 3 > 4 5 5 t M R [ I.0Xy   ",
"  y 8XZXZXVXfX<XpXrX}.#X>X=X}.=X,X=XU.w.e o 7 @.x.z.i.v < e j 8 % I iXZXCXZXZXZXZXZXZXZXZXZXZXqX..B c t > 5 h d s f M / I.8Xy   ",
"  y 8XZXZXNXaX<X2X>X|.=X,X}.}.=X=X!.M.@.e X , o.x.k.Z.Q v p j e j v.lXiXdXbXNXZXZXZXZXZXZXZXZXnXI./ t > : 4 l B B c c H u.^.y   ",
"  y 8XZXZXVXaX1X<X#X#X=X}.{.=X*X!.U.i._ 7 + % Q k.x.Z.} r.r.w.w.i.J.!.*XrXjXbXNXZXZXZXZXZXZXZXZX-X..f > * > l Z B V c f ` ~.y   ",
"  y 8XZXZXZXjX1X1X#X#X#X}.!.=X}.U.J.@.M < $ , H i.M.U.J.~.W.}.!.!.!.].=XrXjXbXbXnXZXZXZXZXZXZXZXiXu.B 3 > : d Y )  .W c _ E.y   ",
"  y 8XZXZXZXNX2X:X#X{.{.{.U.=XI.U.s._ e ; ; 8 } W.;XqXXXXXW.!.!.!.!.{.>XrXzXNXNXiXZXZXZXZXZXZXZXlXn.C 3 > > 5 ( 0.;.^ c H v.y   ",
"  y 8XZXZXZXCXaX|.}.!.!.].P.}.U.J.7.H < $ % 8 _ J.=X=X}.W.U.T.{.T.`.$X3XsXxXBXBXdXZXZXZXZXZXZXZXjXs.C s 3 3 d Z ;.-.Y c p %.y   ",
"  y 8XZXZXZXZXtX[.`.T.T.U.U.U.J.z.o.F e $ $ 9 } P.].{.T.L.U.P.`.@X@X@X%XsXjXvXcXsXVXZXZXZXZXZXZXbXD.Z l t t s l V ) Y M p K y   ",
"  y 8XZXZXZXZXwXP.F.P.L.J.N.z.9.4.u.P.p.f > t [ F.`.U.G.J.T.P.Y.(.(.`.&X5XhX5X&X&XMXZXZXZXZXZXZXZX-X..V t t s W X.9.z.H 3 S y   ",
"  y 8XZXZXZXZXqXM.n.J.b.z.2.E J _ g.H.g.V M c U a.g.D.F.Y.`.`.P.G._.%X6X6X&X`.`.>XBXZXZXZXZXZXZXZXNX-XI.{ M $.x.lXbXnX8Xx.v.y   ",
"  y 8XZXZXZXZXqXz.i.y.<. .Y E d t f N s.s.T.[ R 4.y.g.F.Y.G.Y.H.G.`.%X&X&X>X=XtXbXZXZXZXZXZXZXZXZXZXZXAXbXmXnXVXZXZXZXZXVX8Xy   ",
"  i 9XZXZXZXZXNX{.g.0.] ( 0.y...m d R P.g.%XD.s.0.y.D.G.g.g.D.g.H.%XsXhXjXxXNXZXZXZXZXZXZXZXZXZXZXZXZXZXZXZXZXZXZXZXZXZXZX9Xi   ",
"  i iXZXZXZXZXZXNXhX7X`.a.0.4.4.| ( ..D.q.H.$XR.#XT.>X>X=XrXtXxXNXZXZXZXZXZXZXZXZXZXZXZXZXZXZXZXZXZXZXZXZXZXZXZXZXZXZXZXZXiXi   ",
"  6 v.iX9X9X9X9X9X0X1X%Xs.^ } 0.<.-.3.J.}.~.*X^.oX8X0X9X9X9X9X9X9X9X9X9X9X9X9X9X9X9X9X9X9X9X9X9X9X9X9X9X9X9X9X9X9X9X9X9XiXv.6   ",
"  X 6 i i y y y y y y n R 0.n.p.y.0.a.2.I i p y y y y y y y y y y y y y y y y y y y y y y y y y y y y y y y y y y y y i i 6 X   ",
"                            7 e v n 8 %                                                                                         "
};
