/* XPM */
static char *tile02[] = {
/* columns rows colors chars-per-pixel */
"64 64 12 1 ",
"  c #020202",
". c #0C0C0C",
"X c #2A2A2A",
"o c gray21",
"O c gray23",
"+ c gray59",
"@ c #9A9A9A",
"# c #C3C3C3",
"$ c gray79",
"% c gray83",
"& c #DADADA",
"* c white",
/* pixels */
"                                                                ",
" .XOOooooooooooooooooooooooooooooooooooooooooooooooooooooooOOX. ",
" X+%$######################################################$%@X ",
" O%**********************************************************&O ",
" O$**********************************************************$O ",
" o#**********************************************************$o ",
" o#**********************************************************$o ",
" o#**********************************************************$o ",
" o#**********************************************************$o ",
" o#**********************************************************$o ",
" o#**********************************************************$o ",
" o#**********************************************************$o ",
" o#**********************************************************$o ",
" o#**********************************************************$o ",
" o#**********************************************************$o ",
" o#**********************************************************$o ",
" o#**********************************************************$o ",
" o#**********************************************************$o ",
" o#**********************************************************$o ",
" o#**********************************************************$o ",
" o#**********************************************************$o ",
" o#**********************************************************$o ",
" o#**********************************************************$o ",
" o#**********************************************************$o ",
" o#**********************************************************$o ",
" o#**********************************************************$o ",
" o#**********************************************************$o ",
" o#**********************************************************$o ",
" o#**********************************************************$o ",
" o#**********************************************************$o ",
" o#**********************************************************$o ",
" o#**********************************************************$o ",
" o#**********************************************************$o ",
" o#**********************************************************$o ",
" o#**********************************************************$o ",
" o#**********************************************************$o ",
" o#**********************************************************$o ",
" o#**********************************************************$o ",
" o#**********************************************************$o ",
" o#**********************************************************$o ",
" o#**********************************************************$o ",
" o#**********************************************************$o ",
" o#**********************************************************$o ",
" o#**********************************************************$o ",
" o#**********************************************************$o ",
" o#**********************************************************$o ",
" o#**********************************************************$o ",
" o#**********************************************************$o ",
" o#**********************************************************$o ",
" o#**********************************************************$o ",
" o#**********************************************************$o ",
" o#**********************************************************$o ",
" o#**********************************************************$o ",
" o#**********************************************************$o ",
" o#**********************************************************$o ",
" o#**********************************************************$o ",
" o#**********************************************************$o ",
" o#**********************************************************$o ",
" o#**********************************************************$o ",
" O$**********************************************************$O ",
" O%**********************************************************&O ",
" X@&$$$$$$$$$$$$$$$$$$$$$$$$$$$$$$$$$$$$$$$$$$$$$$$$$$$$$$$$&@X ",
" .XOOooooooooooooooooooooooooooooooooooooooooooooooooooooooOOX. ",
"                                                                "
};
