/* XPM */
static char *tile01[] = {
/* columns rows colors chars-per-pixel */
"64 64 13 1 ",
"  c #020202",
". c #0B0B0B",
"X c gray16",
"o c gray22",
"O c #3C3C3C",
"+ c #3E3E3E",
"@ c #6F6F6F",
"# c gray58",
"$ c #989898",
"% c #D8D8D8",
"& c gray88",
"* c gray95",
"= c white",
/* pixels */
"                                                                ",
" .XOOOOOOOOOOOOOOOOOOOOOOOOOOOOOOOOOOOOOOOOOOOOOOOOOOOOOOOOOOX. ",
" X#%%%%%%%%%%%%%%%%%%%%%%%%%%%%%%%%%%%%%%%%%%%%%%%%%%%%%%%%%%$X ",
" O%=*%%%%%%%%%%%%%%%%%%%%%%%%%%%%%%%%%%%%%%%%%%%%%%%%%%%%%%*=%O ",
" O%*@XOOOOOOOOOOOOOOOOOOOOOOOOOOOOOOOOOOOOOOOOOOOOOOOOOOOOX@*&O ",
" O%%X                                                      X%&O ",
" O%%O                                                      O%%O ",
" O%%O                                                      O%%O ",
" O%%O                                                      O%%O ",
" O%%O                                                      O%%O ",
" O%%O                                                      O%%O ",
" O%%O                                                      O%%O ",
" O%%O                                                      O%%O ",
" O%%O                                                      O%%O ",
" O%%O                                                      O%%O ",
" O%%O                                                      O%%O ",
" O%%O                                                      O%%O ",
" O%%O                                                      O%%O ",
" O%%O                                                      O%%O ",
" O%%O                                                      O%%O ",
" O%%O                                                      O%%O ",
" O%%O                                                      O%%O ",
" O%%O                                                      O%%O ",
" O%%O                                                      O%%O ",
" O%%O                                                      O%%O ",
" O%%O                                                      O%%O ",
" O%%O                                                      O%%O ",
" O%%O                                                      O%%O ",
" O%%O                                                      O%%O ",
" O%%O                                                      O%%O ",
" O%%O                                                      O%%O ",
" O%%O                                                      O%%O ",
" O%%O                                                      O%%O ",
" O%%O                                                      O%%O ",
" O%%O                                                      O%%O ",
" O%%O                                                      O%%O ",
" O%%O                                                      O%%O ",
" O%%O                                                      O%%O ",
" O%%O                                                      O%%O ",
" O%%O                                                      O%%O ",
" O%%O                                                      O%%O ",
" O%%O                                                      O%%O ",
" O%%O                                                      O%%O ",
" O%%O                                                      O%%O ",
" O%%O                                                      O%%O ",
" O%%O                                                      O%%O ",
" O%%O                                                      O%%O ",
" O%%O                                                      O%%O ",
" O%%O                                                      O%%O ",
" O%%O                                                      O%%O ",
" O%%O                                                      O%%O ",
" O%%O                                                      O%%O ",
" O%%O                                                      O%%O ",
" O%%O                                                      O%%O ",
" O%%O                                                      O%%O ",
" O%%O                                                      O%%O ",
" O%%O                                                      O%%O ",
" O%%O                                                      O%%O ",
" O%%X                                                      X%&O ",
" O%*@XOOOOOOOOOOOOOOOOOOOOOOOOOOOOOOOOOOOOOOOOOOOOOOOOOOOOX@*%O ",
" O%=*%%%%%%%%%&&%%%%%%&&%%%%%%&&%%%%%%&&%%%%%%&&%%%%%%&&%%%*=%O ",
" X$%%&%%%%%%%%&&%%%%%%&&%%%%%%&&%%%%%%&&%%%%%%&&%%%%%%&&%%&%%$X ",
" .XOOOOOOOOOOOOOOOOOOOOOOOOOOOOOOOOOOOOOOOOOOOOOOOOOOOOOOOOOOX. ",
"                                                                "
};
